<?xml version='1.0' encoding='utf-8'?>
<svg xmlns="http://www.w3.org/2000/svg" enable-background="new 0 0 4242.8989 5000" version="1.1" viewBox="0 0 4242.9 5e3"> <path d="m4242.6 3094c-1.731-24.846-21.25-28.352-50.064-43.108-90.531-49.354-93.946-50.749-97.795-55.155-17.29-19.82-82.694-248.41-270.85-444.09-43.994 60.6-70.91 126.27-99.024 195.03-67.356-292.46-56.222-466.27-71.842-593.14-11.451-92.981-31.144-102.57-35.09-131.87 131.37-197.74 111.66-135.03 156.75-371.05 79.81-383.1 84.041-435.8 236.11-771.51 8.3911-18.102 20.292-38.213 24.523-57.548-53.955 49.991-167.88 180.7-231.99 275.25-82.674 121.92-162.78 297.53-238.08 416.9l-81.955-88.966c-13.221-13.397-30.557-26.815-41.763-41.622-13.183-17.41-11.767-76.304-33.166-109.84-19.051-29.866-55.476-30.134-59.739-32.894-3.324-2.1506-18.368-39.35-21.441-45.495-14.535-29.076-31.942-57.094-50.109-84.035-164.38-243.76-432.27-454.94-769.74-560.33-19.568-6.5415-12.876-1.9099-20.992-16.571-5.8303-10.516-20.602-33.991-26.9-38.922-6.8347-5.3544-28.2-8.0035-37.049-10.038-52.254-12.027-103.98-22.911-157.13-30.073-1.6847-5.3279-142.46-450.5-143.85-454.94-1.3938 4.4489-142.16 449.59-143.85 454.94-53.151 7.1618-104.88 18.046-157.13 30.073-8.8491 2.0345-30.214 4.6837-37.049 10.038-6.6688 5.2208-21.486 29.157-26.9 38.922-8.1176 14.664-1.4021 10.022-20.992 16.571-337.16 105.29-605.18 316.3-769.74 560.33-67.45 100.02-61.926 123.3-71.549 129.53-4.3174 2.7947-40.666 2.9944-59.739 32.894-21.336 33.437-19.953 92.388-33.166 109.84-11.206 14.807-28.542 28.225-41.763 41.622l-81.955 88.966c-75.914-120.36-155.77-295.51-238.08-416.9-64.173-94.649-178.12-225.34-231.99-275.25 4.2308 19.335 16.132 39.446 24.523 57.548 157.44 347.56 158.31 398.06 236.11 771.51 45.061 235.84 25.317 173.21 156.75 371.05-4.0558 30.122-23.546 38.136-35.09 131.87-14.943 121.37-4.9352 302.63-71.842 593.14-28.114-68.759-55.03-134.43-99.024-195.03-187.74 195.26-253.89 424.66-270.85 444.09-3.868 4.4272-7.4345 5.8943-97.795 55.155-28.409 14.549-48.333 18.266-50.064 43.108-2.78 39.769 16.092 90.295 27.137 128.18 79.463 272.47 201.99 512.01 266.38 582.66 11.886 13.04 16.358 27.243 24.709 42.327 26.677 48.14 107.09 113.19 187.46 190.8 123.2 118.97 272.59 285.53 355.08 427.38 61.683 106.07 105.5 223.21 116.9 345.75 4.7496 51.025 4.1654 104.38-9.0205 154.09 87.022-101.51 152.24-238.08 179.24-369.05 14.022-68.018 18.434-135.44 18.771-204.68 253.71 41.332 543.84 197.14 737.88 348.08 86.865 67.57 183.53 150.18 213.96 260.46 0.8865-2.3604 1.7805-4.7129 2.6846-7.0566 0.9038 2.3438 1.7979 4.6963 2.6843 7.0566 30.431-110.28 127.09-192.89 213.96-260.46 192.48-149.73 482.31-306.44 737.88-348.08 0.3374 69.238 4.7493 136.66 18.771 204.68 27.001 130.97 92.215 267.54 179.24 369.05-13.186-49.71-13.77-103.06-9.0205-154.09 11.403-122.53 55.221-239.68 116.9-345.75 82.755-142.3 231.96-308.49 355.08-427.38 76.989-74.346 160.7-142.5 187.46-190.8 8.3508-15.084 12.823-29.288 24.709-42.327 30.779-33.775 54.521-77.644 76.727-117.65 82.298-148.28 142.23-302.4 189.65-465.01 11.045-37.88 29.917-88.407 27.137-128.18zm-200.65-30.22c5.7217 2.6997 9.1917 10.093 11.337 15.915 35.191 95.376-96.952 379.86-141.98 470.5-103.42 208.21-129.99 200.82-264.52 327.97-172.19 162.75-354.25 338.77-452.85 558.08l-3.7424 3.3394c2.5334-80.273 28.527-162.46 57.004-237.06 6.6987-17.552 13.725-40.162 24.241-55.568 3.1821-4.6631-11.688 6.7432 151.41-110.97 37.178-27.096-14.684 10.464 253.03-209.03 101.27-85.505 113.68-107.69 147.95-162.25 128.27-204.3 215.26-447.36 224.13-508.68 4.5026-31.121 0.8964-61.794-6.0089-92.245zm-748.02 1039.1c0.8713-6.356 9.0254-17.255 12.511-23.243 25.636-44.085 55.523-83.678 87.319-123.4 8.2849 17.93 20.116 31.151 33.196 45.782-35.511 33.839-70.459 53.221-133.03 100.86zm316.21-334.72 129.92-37.069 7.071-0.2415c-17.886 29.349-29.073 36.018-241.75 208.47l-43.913-18.247-24.04-14.294c145.45-155.18 103.46-119.78 172.71-138.62zm-11.881-24.543 189.01-235.41c7.001 58.258-2.1199 125.38-18.01 181.26-10.638 6.6633-25.047 10.38-36.828 14.903-42.156 16.178-85.515 27.993-128.98 40.03l-5.1927-0.7856zm-109.67 214.12c-6.1702 5.4653-7.0913 6.7319-14.022 10.446-8.1296-13.03-18.792-24.251-28.875-35.79 12.194 5.7869 34.596 14.888 42.897 25.344zm470.13-728.94c46.19-27.107 63.798-58.923 76.833-109.65l1.1331 1.969c-4.2805 52.556-28.592 106.01-47.5 155-39.28 101.77-79.774 204.62-138.06 297.29-14.079-52.965-21.545-84.02-34.757-110.81-2.418-4.8955-0.9368-4.2812 1.783-8.9048 36.807-62.529 63.718-131.14 82.64-201.07 20.756-4.9308 39.532-13.02 57.931-23.818zm-46.336-10.239c1.5156-6.4065 2.5635-15.896 5.1472-21.773 1.4858-3.3694 10.189-10.204 13.024-13.09 37.633-40.363 45.027-45.565 87.284-116.65-7.5327 91.007-29.553 119.95-102.12 156.22l-3.3338-4.7142zm-99.916 418.46c-3.7871-13.261-0.8459-34.012-0.7703-48.205l-1.7227-74.289 1.3198 0.3225c12.291 22.578 21.958 105.19 1.1732 122.17zm190.01-716.32c13.418 37.034 28.104 73.695 39.068 111.55-8.4714-9.8162-13.382-23.163-22.15-32.038-30.383 42.96-31.7 88.679-98.279 164.74 1.4465-16.136 35.614-165.44-18.343-414.16l-25.218-95.569c56.098 80.252 91.767 173.99 124.92 265.48zm-219.04-150.6c0.0908-53.861 1.425-104.45 13.906-157.11 4.678 34.532 1.5208 48.623-0.1206 82.081-2.3174 47.117-4.0999 95.342-10.95 142.04l-1.259 2.5032c-3.0718-22.463-1.6116-46.78-1.5762-69.515zm-136.61 0.6246c55.855 312.72 123.44 474.34 123.93 486.72 0.2466 6.1699-8.0635 20.025-10.819 25.893-2.5535 4.5984-0.7957 2.6643-5.3994 5.6814-20.707-44.604-88.574-251.68-115.38-376.88-56.375-263.31-53.963-512.77-55.841-704.6l2.4729 1.969c29.442 378.83 15.072 252.01 61.028 561.21zm-6.865 644.21c5.2937 15.417 16.077 36.067 17.704 51.67 0.9114 8.7485-12.35 24.987-17.19 32.849-3.1736 4.9863-4.3269 7.8118-9.3281 11.02-12.214-36.631-19.925-76.032-29.207-113.58-68.096-275.59-89.002-615.16-77.034-846.86 14.632 15.505-26.429 390.97 115.05 864.91zm187.84-2158.9c-41.862 154.44-21.83 68.544-90.28 393-11.746 60.051-18.504 124.85-40.957 181.94-21.738 55.276-66.503 106.93-100.79 155.21-102.91 158-145.26 220.94-215.5 379.81-7.1621 17.991-12.919 37.346-24.332 53.126l-2.9663-2.8306c-5.1643-57.14 149.73-361.86 180.75-416.92 43.007-76.319 96.642-146.68 129.7-228.32 20.489-50.612 33.392-102.77 48.572-155.03 93.035-323.58 96.545-354.74 135.17-430.86l0.5337 0.947c-3.2938 22.932-13.246 47.535-19.889 69.928zm-338.74 2252.5c8.0891 46.019 15.679 92.265 30.436 136.71-7.4338 7.1367-12.823 14.571-18.585 23.092l-2.2117 4.9004h-3.1628c-56.457-193.73-59.456-504.05-48.814-709.31 2.4126-46.432 1.9294-96.128 10.371-141.87 7.4431 82.348-27.034 350.7 31.967 686.47zm-1353.2 663.69c0.9917 136.35 3.106 273.65-14.485 409.16-17.591-135.51-15.477-272.81-14.485-409.16 2.0701-419.89 7.3003-405.8-17.522-638.75-17.29-162.34-27.776-301.26-123.66-396.71-9.0555-9.0105-21.425-17.497-24.941-30.139l3.0571-1.2947c28.981 26.17 58.751 52.119 80.061 85.239 62.056 96.455 67.107 217.46 77.075 328.18l19.874 196.04 0.5391-5.3486 0.5388 5.3486 19.874-196.04c9.9673-110.71 15.019-231.72 77.074-328.18 21.31-33.12 51.08-59.069 80.061-85.239l3.0574 1.2947c-3.5156 12.642-15.886 21.128-24.941 30.139-96.64 96.203-106.53 235.88-123.66 396.71-24.77 232.46-19.596 218.09-17.522 638.75zm-1216.4-1777-5.5755 8.804-3.0319-2.4932c1.0013-9.0664 1.8185-15.473-0.4181-23.611l-1.0226 9.3882-3.4297 0.03c-14.827-49.452-103.7-256.52-197.46-419.01-86.349-149.65-97.755-137.78-149.8-309.81-88.911-294.24-84.196-269.35-82.811-277.87 39.782 107.44 95.879 313.17 136.72 402.83 34.56 75.881 85.188 143.83 126.35 216.17 68.374 120.16 181.8 376.97 180.48 395.57zm-62.066-488.42c3.5154-1.4858 2.0551-1.3397 4.1855-1.375l30.542 197.83c14.344 78.021 33.282 159.43 32.592 238.94-2.1053-0.5437-1.4103-0.0049-2.3926-1.1028-33.028-233.71-20.045-154.26-56.354-350.89-4.4321-26.286-11.891-56.782-8.5723-83.395zm65.898 521.78c18.227-18.127 19.351-41.919 19.356-65.969 0.0402-92.726-14.568-103.14-12.395-146.18 7.0663 15.275 5.9976 27.674 9.7004 51.232 6.7993 43.264 22.216 119.8-3.5407 158.5-11.025 16.57-30.214 23.531-48.97 27.354-5.1725-1.4402-4.6135-1.667-7.9023-5.3989l1.6066-7.3989c16.975-3.0012 31.909-1.9509 42.146-12.138zm-33.599 67.384c5.3689-9.9773 22.498-11.715 32.773-16.369 80.462-36.454 42.107-165.75 25.621-243.61-83.406-372.27-78.992-342.1-72.854-354.37l4.7243-1.3751c14.136 39.186 17.354 57.748 74.239 310.97 49.231 196.42 60.145 219.88 67.258 284.98-37.796 32.563-79.322 39.371-127.72 45.878-5.3791-5.656-3.7774-18.132-4.0443-26.114zm151.26-132.67c28.507 84.257 41.929 167.07 95.468 241.17-9.6604-0.7605-21.597-7.8066-30.517-11.64-48.375-20.788-100.01-28.482-156.1-38.071 40.892-14.122 80.781-28.165 116.16-54.314-12.668-50.93-7.0778-21.178-25.012-137.15zm908.06 1076.1c-103.13-130.52-70.273-91.693-146.42-174.7-5.7365-6.0493-18.152-15.981-21.868-22.967-6.8546-12.878-23.614-242.63-24.377-252.63-12.094-136.97-39.77-160.29-167.22-207.37-156.16-57.665-182.21-49.566-352.44-149.11-63.14-36.93-74.243-40.646-107.7-110.89-55.74-117-65.203-255.77-73.443-383.21 2.1102-0.5342 4.2208-1.1384 6.3916-1.3752 13.936 7.3535 28.235 14.289 41.229 23.234 25.585 120.98 19.992 343.97 218.14 472.18 155.44 100.56 267.44 87.178 369.51 156.82 73.937 50.438 75.129 73.602 98.923 346.53 6.4395 86.033 5.4934 81.956 7.8065 86.397 4.0696 7.812 23.45 22.383 30.391 29.469 126.69 136.12 118.73 126.86 120.12 130.75 0.6169 1.7223 0.0577-2.3717 0.9626 56.873zm-573.83-627.38c-130.86-46.241-256.92-120.59-377.7-188.43 21.712 2.458 48.019 17.165 67.863 26.437 156.5 74.474 36.459 24.93 616.17 246.48-15.614 24.02-31.081 35.663-174.34 160.55-114.74-111.13-321.92-279.37-396.3-330.42l-132.19-84.609c-23.319-14.092-48.618-26.714-70.663-42.695 14.593 3.688-12.789-9.4622 256.3 138.21 121.94 62.106 200.33 83.064 293.97 112.21 42.463 13.891 85.037 31.312 128.28 42.181-14.848-15.684-182.4-69.676-211.38-79.92zm319.27 123.96c8.804 90.225 27.761 179.85 26.971 270.98-24.064 23.674-42.644 56.827-62.544 84.584l-65.354 87.329c-3.6547-35.048-6.4762-78.576-38.626-205.69-6.9102-27.299-12.591-55.956-24.76-81.462l164.31-155.74zm-566.6-141.56c113.15 86.354 246.08 183.37 336.09 276.99 54.723 56.93 45.159 49.448 62.508 123.69 58.288 249.38 42.098 355.65 72.053 520.65 44.606 245.6 103.7 306.97 112.37 353.87-9.1361-7.9429-15.941-20.277-23.113-30.048-31.182-42.477-77.648-77.187-119.41-113.96-112.78-108.83-41.378-32.956-349.76-380.25-77.687-78.34-83.424-79.426-92.441-100.9-38.711-92.153 10.34-268.03-124.84-659.57-7.3933-21.416-14.132-51.162-26.407-69.666-11.118-16.762-51.5-38.426-77.009-69.827l229.95 149.02zm522.85 869.91c-23.324-122.93-28.104-229.74-26.905-236.82 1.0826-6.386 10.556-19.361 13.926-25.374 29.076-51.952 62.232-102.05 95.745-151.23 7.3734 11.398 13.599 23.874 22.398 34.249 52.884 62.337 117.23 115.1 171.27 176.54 5.1926 5.9028 16.399 15.532 19.189 22.13 1.8887 4.4624 0.2871 19.089 0.3676 24.644-17.245-16.45-32.284-40.958-48.16-59.477-21.526-25.112-137.94-152.03-164.95-157.15-2.4829 5.3738-5.8374 10.138-9.1112 15.049l248.43 291.87-0.1511-244.41c-11.462-17.325-139.53-151.5-142-156.63-0.9154-1.8994-0.3198 2.0425-6.4066-70.265-19.221-179.32-21.777-249.56-51.655-301.34-42.805-74.205-128.43-82.808-186.16-100.7-321.21-99.515-385.36-211.57-446.1-422.25-11.755-40.771-24.679-86.83-26.341-129.32 23.328 35.422 51.362 212.51 135.56 319.92 86.997 110.97 249.83 174.88 388.39 172.86 65.027-0.9517 134-14.364 198.55-6.2605 4.8804 5.7168 6.6382 6.593 7.2778 14.294-10.934 7.0261-29.358 8.7737-42.05 11.549-43.833 9.5847-87.46 17.674-131.97 23.184 34.064 11.578 172 22.049 189.86 28.013 6.3413 2.1201 6.6334 4.8298 9.7207 10.431l-2.755 3.7773-108.04 9.4941c40.474 21.345 85.168 38.534 123.4 63.536l0.0807 7.5549-4.9761 3.5005c-28.688-5.6409-50.401-12.783-74.284-30.003 71.701 105.71 67.116 160.06 76.228 325.55 3.2614 53.559 2.3387 49.451 3.1532 51.176 3.2134 6.8096 16.827 17.92 22.327 23.843 50.185 54.045 86.863 103.98 87.953 107.48 2.1493 6.8948 5.3 8.6543 8.9199 637.76 2.4791 219.9 1.5002 235.73 59.582 478.56 12.3 51.403 20.479 102.36 38.55 152.3l-281.68-461.75c-82.997-142.89-136.43-294.22-167.17-456.28zm662.69-686.42c-43.164 43.077-113.12 82.381-190.47 181.64-0.5005-0.6697-1.0024-1.3372-1.5059-2.0027-0.5037 0.6655-1.0056 1.333-1.5061 2.0027-78.304-100.48-146.21-137.47-190.47-181.64-5.2836-5.2681-7.1471-12.873-9.2272-19.809l1.4956-2.7146 2.5134 0.1963 196.27 152.51 0.927-0.7312 0.9268 0.7312 196.27-152.51 2.5134-0.1963 1.4956 2.7146c-2.08 6.9355-3.9436 14.541-9.2273 19.809zm0.6702 44.186c-11.393 24.251-29.006 38.877-48.109 56.868-86.79 83.936-115.1 160.23-144.54 260.95-22.988-78.649-48.261-167.84-144.54-260.95-19.104-17.991-36.717-32.617-48.109-56.868 62.035 51.821 138.87 113.89 176.44 186.57 6.7188 12.999 10.673 28.069 15.709 41.818 0.166-0.4404 0.3323-0.8809 0.4985-1.3218 0.166 0.4409 0.3323 0.8813 0.4983 1.3218 5.0366-13.75 8.9905-28.819 15.709-41.818 37.568-72.688 114.41-134.75 176.44-186.57zm-23.813-91.817c-54.511 42.968-111.48 80.204-168.84 119.09-57.36-38.889-114.32-76.126-168.84-119.09-14.087-11.106-29.892-21.138-42.514-33.835 27.86 6.4421 35.714 20.876 211.35 120.97 178.19-101.55 183.47-114.52 211.35-120.97-12.622 12.697-28.426 22.73-42.514 33.835zm-108.43 1499.8c86.53-361.77 46.3-233.82 66.125-1082.6 0.6042-9.645-0.4282-24.71 2.3774-33.71 1.8154-5.8311 45.091-61.321 87.953-107.48 5.5-5.9231 19.114-17.033 22.327-23.843 0.8352-1.769-0.1294 2.7307 3.1533-51.176 8.9443-162.45 4.1235-219.25 76.228-325.55-23.883 17.22-45.596 24.362-74.284 30.003l-4.9761-3.5005 0.0806-7.5549c38.227-25.002 82.922-42.191 123.4-63.536l-108.04-9.4941-2.7549-3.7773c3.0872-5.6008 3.3794-8.3105 9.7207-10.431 18.087-6.042 155.42-16.307 189.86-28.013-44.513-5.51-88.14-13.599-131.97-23.184-12.692-2.7749-31.116-4.5225-42.05-11.549 0.6396-7.7009 2.3975-8.5771 7.2778-14.294 64.549-8.1038 133.52 5.3088 198.55 6.2605 138.56 2.0195 301.39-61.894 388.39-172.86 84.692-108.04 111.97-284.1 135.56-319.92-1.6621 42.488-14.586 88.548-26.341 129.32-62.875 218.07-131.67 324.83-446.1 422.25-58.081 17.997-143.34 26.461-186.16 100.7-30.51 52.881-33.098 128.21-51.655 301.34-6.0159 71.466-5.4902 68.364-6.4065 70.265-2.5427 5.2747 6.7578-7.344-99.774 108.66-14.223 15.397-30.668 30.502-42.227 47.973l-0.1511 244.41 248.43-291.87c-3.2737-4.9106-6.6282-9.6753-9.1111-15.049-27.011 5.1221-143.42 132.04-164.95 157.15-15.875 18.519-30.914 43.027-48.159 59.477 0.0803-5.5554-1.5212-20.182 0.3674-24.644 2.7905-6.5979 13.997-16.228 19.19-22.13 54.042-61.441 118.38-114.2 171.27-176.54 8.7988-10.375 15.024-22.851 22.398-34.249 33.513 49.182 66.669 99.281 95.745 151.23 3.3696 6.0134 12.844 18.988 13.926 25.374 1.0652 6.2988-2.8816 110.2-26.905 236.82-30.748 162.07-84.176 313.4-167.17 456.28l-281.68 461.75c18.071-49.938 26.251-100.9 38.55-152.3zm1111.2-1875.3c-55.082 9.4175-107.77 17.3-156.1 38.071-8.9197 3.833-20.856 10.879-30.517 11.64 53.539-74.103 66.961-156.91 95.468-241.17-17.95 116.07-12.353 86.252-25.012 137.15 35.382 26.15 75.272 40.192 116.16 54.314zm-731.71 341.72 498.79-190.63c154.38-73.463 163.97-79.884 185.24-82.292-120.78 67.838-246.84 142.19-377.7 188.43-28.98 10.244-196.54 64.236-211.38 79.92 50.128-12.601 30.816-11.841 238.71-76.561 207.52-71.238 398.79-205.68 439.83-216.05-22.045 15.981-47.344 28.602-70.663 42.695-164.09 105.03-143.78 88.106-291.15 207.94-81.869 66.573-161.47 133.62-237.34 207.09-142.26-124.01-158.63-136.37-174.34-160.55zm151.37 195.21c-13.816 28.959-51.1 169.33-63.385 287.15l-65.354-87.329c-19.906-27.766-38.478-60.908-62.544-84.584-0.7905-91.126 18.167-180.75 26.971-270.98l164.31 155.74zm401.16-569.98c-33.342 70.01-44.29 73.804-107.7 110.89-170.21 99.537-197.24 91.803-352.44 149.11-182.45 67.393-154.01 87.924-184.38 408.89-1.4502 13.407-1.365 40.116-7.2173 51.111-3.717 6.9854-16.132 16.918-21.869 22.967-76.166 83.022-43.281 44.157-146.42 174.7 0.905-59.258 0.3313-55.11 0.9624-56.873 1.7136-4.7996 0.6956-2.4402 120.12-130.75 6.9404-7.0862 26.321-21.657 30.391-29.469 2.8867-5.543-0.7063 11.247 19.356-218.87 14.547-149.88 29.247-174.4 87.374-214.05 70.648-48.205 156.63-60.247 235.49-89.721 334.63-125.04 314.64-361.89 352.15-539.28 12.994-8.9448 27.293-15.88 41.229-23.234 2.1707 0.2368 4.2812 0.8411 6.3916 1.3752-8.2399 127.45-17.703 266.21-73.443 383.21zm-563.95 1500.9c40.042-93.584 63.561-136.93 94.421-306.85 29.574-162.9 14.145-272.89 72.053-520.65 17.348-74.235 7.7859-66.758 62.508-123.69 89.44-93.027 217.33-186.35 336.09-276.99l229.95-149.02c-25.547 31.447-65.885 53.057-77.009 69.827-12.274 18.504-19.013 48.25-26.406 69.666-133.91 387.87-86.976 569.44-124.84 659.57-9.0261 21.492-14.644 22.446-92.441 100.9-318.16 358.3-243.18 277.41-349.76 380.25-41.812 36.819-88.224 71.477-119.41 113.96-7.1724 9.771-13.977 22.106-23.113 30.048 2.9766-16.102 11.423-31.987 17.95-47.027zm671.48-1546.4c6.2705-57.387 22.387-111.82 37.734-167.19 68.956-275.12 80.161-363.34 103.76-428.77l4.7244 1.3751c2.6541 5.3035 3.5408 8.2145 2.9617 14.238-2.6897 27.807-12.677 57.729-18.721 85.294-72.172 322.13-80.292 350.62-81.305 401.49-0.7947 39.357 13.548 80.515 49.832 96.954 10.274 4.6538 27.404 6.3916 32.773 16.369-0.2668 7.9829 1.3347 20.458-4.0444 26.114-48.081-6.465-89.762-13.178-127.72-45.878zm110.6-74.672-3.032 2.4932-5.5754-8.804c-0.7808-11.005 4.8806-19.481 8.6025-29.524 182.94-442.39 228.4-428.89 298.23-582.22 44.581-97.881 82.984-257.72 136.72-402.83 1.2561 7.7307 1.8906 1.6875-32.234 110.49-64.924 214.86-74.727 252.85-98.646 302.73-53.097 110.72-121.06 173.6-254.22 481.32-15.84 36.606-33.529 73.962-44.977 112.14l-3.4297-0.03-1.0225-9.3882c-2.2384 8.1448-1.4198 14.542-0.4181 23.611zm44.886-411.33c-36.31 196.64-23.33 117.2-56.354 350.89-0.9822 1.0979-0.2871 0.5591-2.3926 1.1028-0.6897-79.507 18.248-160.92 32.592-238.94l30.542-197.83c2.1304 0.0353 0.6699-0.1108 4.1853 1.375 3.3191 26.613-4.1401 57.11-8.5723 83.395zm-70.446 435.96c-25.757-38.696-10.34-115.23-3.5408-158.5 3.6885-23.466 2.6172-35.92 9.7004-51.232 2.1155 41.881-12.435 53.79-12.395 146.18 0.0049 24.049 1.1284 47.842 19.356 65.969 10.281 10.232 24.834 9.0771 42.146 12.138l1.6067 7.3989c-3.2888 3.7319-2.73 3.9587-7.9023 5.3989-18.756-3.8227-37.945-10.783-48.97-27.354zm296.04-894.84c114.26-200.59 200.99-383.92 267.69-454.41l0.3374 2.4178c-161.52 288.16-180.92 508.5-383.75 819.38-10.376 15.911-23.164 45.022-38.172 55.584-16.047-5.5807-24.674-17.658-34.354-30.814-18.202-27.384-30.351-52.406-37.956-84.524 146.82-159.35 191.72-247.52 226.2-307.63zm-61.24 19.028-3.4858 7.2625-4.8047 4.79c-34.978-61.717-93.396-122.29-104.41-148.98 8.634 5.5321 8.0727 5.8783 112.7 136.93zm-139.24-45.304c18.366 26.455 44.006 98.136 75.684 103.28 4.865-2.8759 7.374-3.465 10.29-8.5367 16.797-29.237-32.873-101.97-50.169-125.73-6.5527-9.0002-22.02-23.36-23.873-34.017l-0.0757-3.0168c15.712 5.2333 55.092 68.36 63.441 83.174 11.06 19.617 26.804 55.336 19.008 77.996-1.9944 5.7919-6.5776 12.994-12.606 15.11-32.962 11.559-65.714-69.207-79.694-95.695-2.171-5.525-4.2409-6.8297-2.0048-12.566zm13.851 162.61c-4.9312 20.348-21.29 41.295-33.443 58.168-39.174 54.38-86.251 102.21-135.42 147.52-185.62 171.06-248.23 185.04-724.76 332.4-21.3 6.7336-43.758 12.727-63.96 22.241 5.7368-50.204 18.036-99.714 28.955-149.01 4.845-21.874 10.397-69.381 29.388-76.369-2.3921 13.11-10.612 27.046-13.75 40.761l-39.154 172.29c45.886-24.494 68.415-29.258 254.57-85.637 245.13-76.228 314.09-113.2 429.03-197.91 103.71-76.445 194.41-158.53 268.53-264.45zm-886.44 440.06c36.681-3.5005 64.649-17.935 98.968-29.489 23.259-7.8367 48.764-13.926 71.016-24.201l-4.7043-5.0618c6.6482-22.267 8.3406-46.205 10.441-69.253l-3.2183-2.8556c-12.385 6.5979-8.1489 49.398-20.146 63.904-15.246 7.5095-34.324 14.722-51.624 12.234-8.9348-1.2844-12.118-5.3035-17.608-11.584-8.8545-10.133-13.8-18.912-19.205-31.05 49.337-31.123 127.5-47.381 137.64-53.674 4.2812-2.6543 2.7297-1.0428 4.0142-6.8248l-4.1096-2.8807c-45.813 7.2021-94.38 26.875-137.69 43.41-17.93 6.8448-35.931 11.861-53.695 19.522l-2.4426-2.4982c15.518-16.878 123.26-49.998 150.16-59.844l73.403-29.555 5.6465 0.4734c-7.9329 33.624-15.387 65.022-16.218 99.814-0.2266 9.5093-0.3174 25.727 3.1328 34.601 3.5405 9.0911 19.32 15.694 19.229 26.235l-10.038 5.3237c0.9216-6.1245 1.8435-6.4265-1.0122-12.284-5.3489 1.4556-5.5959 6.2654-9.6201 9.1616-3.3389 2.3972-10.642 3.8982-14.787 5.2681-187.54 54.729-192.19 56.818-216.34 59.255l-0.5842-4.7498c19.562 0.811 46.357-8.7283 65.269-14.525 16.706-5.1272 144.25-44.156 150.02-54.959l-10.723-10.678c-67.772 21.007-135.21 46.744-205.84 55.503 0.7004-21.653 2.5938-81.508 18.232-95.992l8.7891 0.8005c-14.818 13.11-16.344 54.204-19.346 73.302 0.01 6.4417-1.4456 8.1644 3.0017 13.151zm40.897-68.049c5.6729 9.672 6.3164 9.7465 13.221 14.334-4.2058 4.8301-9.7961 8.0435-15.084 11.569-1.9414-6.3171-1.0837-10.668 0.156-17.865l-2.6743-1.6921-7.5952 12.309c-4.5012 15.388-3.9187 16.929-2.5032 25.898l-5.0115 1.1836-3.7017-3.7019c3.5505-14.198 6.7085-33.695 18.837-42.811l4.3568 0.7757zm-2.2315-4.684 1.5916-6.1648 6.6484-0.7756-2.8354 5.1223-5.4046 1.8181zm25.918 17.804c-6.7991-11.523-7.8809-12.349-10.889-23.969 7.4287-1.0122 17.774 18.63 25.676 22.544l10.506 5.8071c-14.265 1.7568-21.452 6.0981-33.11 14.002-5.6812 2.5129-8.8442 4.1602-15.215 3.5659l-0.5642-4.0847 25.591-11.932c-0.1409-3.7521 0.3224-1.9992-1.9942-5.9331zm202.96-12.47c5.8425 9.1818 15.633 15.946 22.085 25.017l-5.0669 4.4927-9.2471-0.7153c-13.946-10.305-24.135-23.843-33.342-38.328-1.6521-30.174 5.2432-65.828 12.596-95.141 4.1252-16.434 8.0186-28.698 22.962-37.774l3.4602 1.8132c-6.0978 28.852-28.646 116.74-13.448 140.64zm586.89-496.42c9.394 19.126 20.068 28.485-5.334 104.14-31.995 95.265-128.68 171.48-207.25 235.29-107.95 87.675-161.26 124.71-345.87 182.28-14.44-58.928 1.8687-126.91 21.189-183.18 141.13-72.884 293.56-144.73 406.34-259.73 2.1182-2.1626 1.3201-1.4391 4.127-3.0479 0.0127 0.0107 0.0259 0.0217 0.0388 0.0327-7.9634 15.344-17.537 23.706-31.187 37.667-76.723 78.416-164.2 107.41-196.28 190.85-21.335 55.523 7.2578 93.715 55.76 74.974 23.788-9.1816 46.961-32.637 67.48-48.215 95.547-72.519 216.1-149 229.11-280.14 1.6721-16.887-0.1107-34.153 1.8737-50.92zm-215.62 232.43c46.437-42.71 114.99-85.118 141.05-144.31 15.534-35.289 15.411-76.416 29.026-111.88 6.9434 6.9662-5.3174 52.614-7.3835 62.886-4.2612 21.164-9.4941 44.03-18.928 63.556-49.293 102.04-162.6 151.96-231.07 238.02 21.315-12.007 38.46-28.95 57.669-43.854 41.709-32.35 122.13-87.961 160.11-137.52 37.724-49.237 60.615-116.51 65.072-178.05l2.9717-0.7355c2.9363 7.3735 5.4697 13.966 4.5732 22.015-18.025 161.83-108.01 213.57-263.62 334.25-9.9272 7.8118-20.781 17.814-33.075 21.521-8.8188 2.6543-11.106 1.2942-19.255-2.7854-11.523-17.779-1.0588-41.276 9.3831-59.341 52.174-90.319 166.92-118.89 219.41-225.8 8.6829-17.698 10.869-39.799 24.795-53.982-3.1729 18.499-5.8374 36.379-13.145 53.846-30.9 73.863-129.81 129.26-187.96 218.55 21.727-14.853 40.796-38.374 60.373-56.384zm192.82-492.91 3.0117 0.3073c6.0842 5.4497 9.2322 11.236 11.383 19.018 14.656 53.075-18.479 117.88-44.181 162.63-93.096 162.05-295.27 287.72-463.37 369.37-101.35 49.246-129.99 66.088-364.92 130.55l-6.9099 0.5842c-1.6465-8.8232-3.0137-9.7731-7.137-13.851 8.666-10.181 55.032-18.611 98.394-31.876 145.78-51.186 258.9-83.275 458.34-215.05 73.171-48.341 144.2-100.88 202.58-166.89 60.187-68.049 118.27-160.5 112.81-254.79zm-686.86 37.774c18.401-418.63-59.789-562.25-64.03-598.04 13.372 11.05 22.05 30.864 29.439 46.356 26.225 54.99 48.648 120.2 60.086 180-0.1433-46.73-33.58-161.96-47.46-206.54 51.658 70.561 55.608 156.2 68.386 192.21-4.6868-47.223-1.4827-79.376-33.533-169.75 251.91 179.42 384.2 573.14 325.82 862.24-4.387 21.718-8.3406 44.407-16.339 65.108l-4.0947 3.7371c-4.3721-9.509 0.8611-31.035 1.9795-41.652l7.2275-93.424c8.1042-222.05-36.961-449.33-178.77-622.87-6.0337-7.3834-13.624-18.65-21.581-23.687 14.106 34.431 39.16 48.002 86.8 148.83 53.382 112.94 84.589 242.84 83.748 367.9-0.373 55.8-7.4143 110.44-17.472 165.27-17.814 97.122-25.084 111.67-41.577 148.12 1.2825-40.642 17.225-58.691 29.69-164.42 17.613-149.35 1.405-307.48-64.589-444.18-8.6025-17.817-20.183-48-33.871-60.312 10.68 46.348 39.046 65.368 54.042 227.07 16.49 177.98-53.756 347.69-166.49 482.23 30.118-114.56 31.005-231.84 25.671-349.37-1.4607-32.108-1.4255-65.853-7.6707-97.392-15.139 380.17-35.113 367.3-65.062 509.37-7.2627 6.3864-18.222 10.244-26.956 14.415 13.452-97.78 19.859-195.04 9.9873-293.52-22.4 183.52-27.307 257.82-51.287 311.68-19.928-142.08 1.3652-798.05-33.256-1040.2-13.413-93.774-30.835-117.3-42.524-168.12 145.41 268.52 116.85 610.69 133.69 648.97zm-150.83-733.22c16.409-0.4482 49.459 16.55 65.234 22.735 85.782 33.63 174.73 76.027 252.71 124.98 162.72 102.16 352.8 273.1 441.52 461.26 15.452 32.778 30.119 66.805 33.06 103.23-48.014-122.55-137.23-229.68-229.24-321.64-21.118-21.113-43.657-46.059-68.593-62.368 1.7878 6.4523 13.966 17.029 18.615 22.458 43.724 51.03 106.85 187.04 132.39 250.54 41.426 103.01 74.511 213.69 59.038 325.82l-15.648-74.858c-46.766-193.39-129.12-407.59-257.72-557.09-21.672-25.193-46.79-48.069-71.318-70.467-108.01-98.631-229.2-166.69-362.78-224.22l2.7345-0.3977zm-87.706-59.885c7.8726 7.8418 12.38 20.62 18.358 30.063 28.378 44.816 28.983 31.474 54.762 164.28 30.406 156.7 32.743 315.37 34.48 474.43 2.6689 242.85 0.6692 354.51-48.205 570.59-22.79 97.817-22.039 97.494-26.89 106.49-3.7747-9.5048-2.6223-3.8416 40.705-243.71l16.888-157.94c-4.4873 4.1954-3.3896 10.426-4.3516 16.369-15.076 101.78-5.2761 45.072-45.455 259.59-5.127 25.46-8.1743 53.408-17.089 77.785 3.9182-73.07 14.747-144.9 14.767-218.38 0.0298-88.033-9.0752-100.32-30.718-363.27-5.7114 97.941 14.072 195.52 19.431 293.08 4.4119 80.318-5.2986 156.49-12.47 236.11l-166.17-1156c7.021 11.952 10.738 25.349 15.296 38.373 9.3228 26.658 20.106 56.032 21.824 84.352 0.2368 3.8784-0.5791 2.1607 2.1003 4.8954 3.1428-6.8444 1.2388-16.968 0.9065-24.457-1.7427-38.922-15.08-75.312-18.293-113.52 15.835 6.7896 16.083 18.864 45.133 104.38 3.7371 9.9623 7.6455 23.793 14.792 31.62-1.4856-9.5547-6.6128-19.809-9.6196-29.152l-13.574-48.562c5.8071 7.3482 12.762 15.235 16.077 24.07 5.1826 13.795 5.5703 29.096 10.788 43.44l1.4404-1.1432c-3.2888-12.762-2.886-27.016-7.2678-39.204-2.916-8.119-8.2646-15.336-11.816-23.198-8.7234-19.31-17.991-46.512-18.106-67.641 19.506 26.967 23.811 64.817 42.141 88.427-10.158-48.827-24.025-63.616-21.123-74.884 14.897 10.74 25.062 49.771 41.239 77.065-0.5339-17.134-17.069-51.464-27.213-66.095-2.5681-3.7068-4.291-5.7316-5.0264-10.31l3.9888-0.3978c19.552 27.369 29.096 57.487 39.588 89.082 52.555 158.21 59.091 333.07 65.611 479.19 5.5049-81.648 1.6621-163.22-2.4275-244.85-5.8679-116.97-10.471-238.34-47.163-350.6-6.3613-7.1118-20.141-11.554-29.111-15.11-38.202-15.16-80.062-27.117-120.5-34.007l-7.6355-49.132c57.387 6.7541 114.15 22.871 169.91 37.845zm-386.22-143.61c19.61-95.688 35.162-199.28 72.013-290.03 36.85 90.747 52.402 194.34 72.013 290.03 101.94 637.51 73.978 453.55 127.2 830.39 35.724 267.84 61.836 505.22 101.43 655.66 17.744 67.492 35.341 73.884 37.638 106.14 4.6306 64.746-43.637 241.89-38.832 312.41 81.366-19.048 161.71-53.161 240.63-80.973 100.67-35.474 452-151.59 584.34-247.81l-26.809 113.51c-197.07 103.08-341.32 151.24-656.9 299.26-81.488 37.6-24.159-8.9482-214.13 166.2-9.5745 8.8442-21.556 23.626-32.662 29.509 3.2585-9.4233 13.09-18.983 19.275-26.805 176.75-223.21 129.17-172.94 234.09-218.46 58.877-25.54 122.46-54.687 175.38-91.021-30.688 4.7795-61.492 14.007-91.328 22.478-197.14 59.429-186.13 53.602-199.52 62.539-9.4456 6.3049-9.3721 7.8579-91.716 134.9-112.12 168.47-188.76 270.31-240.1 489.81-51.436-219.87-128.81-322.57-240.1-489.81-82.398-127.13-82.273-128.6-91.716-134.9-13.131-8.7671-1.0576-2.7122-199.52-62.539-29.837-8.4714-60.64-17.698-91.328-22.478 52.924 36.334 116.51 65.48 175.38 91.021 104.45 45.314 57.113-5.0334 234.09 218.46 6.1849 7.822 16.016 17.382 19.275 26.805-11.106-5.8828-23.088-20.665-32.662-29.509-189.59-174.8-131.92-128.27-214.13-166.2-315.19-147.84-460.38-196.46-656.9-299.26l-26.81-113.51c130.05 94.553 469.59 207.38 584.34 247.81 78.913 27.812 159.26 61.924 240.63 80.973 4.7994-70.442-43.454-247.78-38.832-312.41 2.2517-31.612 20.231-39.922 37.638-106.14 42.371-160.99 72.577-439.33 101.43-655.66 53.225-376.84 25.13-192.06 127.2-830.39zm-260.56 173.67c5.9784-9.4431 10.486-22.221 18.358-30.063 55.765-14.973 112.53-31.091 169.91-37.844l-7.6355 49.132c-49.682 8.4636-137.01 35.027-149.62 49.116-36.692 112.27-41.295 233.64-47.163 350.6-4.0896 81.628-7.9325 163.2-2.4276 244.85 6.5393-146.54 12.826-320.29 65.611-479.19 10.491-31.594 20.035-61.713 39.588-89.082l3.9889 0.3978c-0.7355 4.5785-2.4583 6.6032-5.0265 10.31-10.144 14.631-26.679 48.96-27.213 66.095 16.244-27.406 26.324-66.312 41.239-77.065 2.7745 10.773-11.284 27.586-21.123 74.884 18.517-23.851 22.455-61.21 42.141-88.427-0.1157 21.129-9.3831 48.331-18.106 67.641-3.551 7.8619-8.8998 15.079-11.816 23.198-4.3817 12.188-3.9789 26.442-7.2678 39.204l1.4404 1.1432c5.2179-14.344 5.6056-29.645 10.788-43.44 3.3143-8.8346 10.27-16.722 16.077-24.07l-13.574 48.562c-3.0068 9.3431-8.1342 19.597-9.6198 29.152 7.1469-7.8268 11.055-21.657 14.792-31.62 30.056-88.474 30.041-97.907 45.133-104.38-3.2134 38.212-16.55 74.602-18.293 113.52-0.3323 7.4894-2.2365 17.613 0.9065 24.457 2.6793-2.7347 1.8634-1.017 2.1002-4.8954 1.7174-28.32 12.501-57.694 21.823-84.352 4.5582-13.025 8.2751-26.422 15.296-38.373l-166.17 1156c-7.172-79.618-16.882-155.79-12.471-236.11 5.3591-97.558 25.143-195.14 19.431-293.08-21.438 260.48-30.747 276.51-30.718 363.27 0.0198 73.474 10.849 145.3 14.767 218.38-8.9146-24.377-11.962-52.325-17.089-77.785-40.18-214.52-30.379-157.81-45.455-259.59-0.9619-5.9432 0.1357-12.173-4.3517-16.369l16.888 157.94c42.658 236.17 44.346 234.55 40.705 243.71-4.8472-8.9913-4.1257-8.7841-26.89-106.49-48.811-215.8-50.889-326.32-48.205-570.59 1.7375-159.05 4.0745-317.73 34.48-474.43 25.878-133.31 26.855-120.21 54.763-164.28zm-203.57 1304.2c-8.7333-4.1702-19.693-8.0283-26.956-14.415-29.682-140.8-49.902-128.66-65.062-509.37-6.2452 31.539-6.2101 65.284-7.6708 97.392-5.3337 117.53-4.4471 234.81 25.671 349.37-112.74-134.54-182.98-304.25-166.49-482.23 15.086-162.67 43.151-179.8 54.042-227.07-13.724 12.344-25.463 42.899-33.871 60.312-77.974 161.52-87.395 362.04-51.156 527.09 5.7418 26.175 15.412 54.702 16.258 81.512l-11.871-26.235c-20.13-54.315-46.521-188.98-47.178-287.15-1.0895-161.99 51.835-330.71 133.17-457.75 13.429-20.972 27.642-35.21 37.376-58.968-12.688 8.0303-55.981 68.024-74.062 96.757-101.08 160.63-133.11 362.82-126.29 549.8l7.2274 93.424c1.1184 10.617 6.3516 32.143 1.9796 41.652l-4.0947-3.7371c-17.066-44.17-46.252-186.31-19.487-344.02 37.437-220.58 141.93-450.11 328.96-583.33-31.994 90.216-28.801 122.07-33.533 169.75 13.155-37.072 16.167-120.88 68.386-192.21-13.88 44.582-47.316 159.81-47.46 206.54 11.438-59.794 33.861-125.01 60.086-180 7.389-15.492 16.067-35.306 29.439-46.356-1.9996 16.878-9.6803 34.042-14.782 50.31-25.266 80.549-41.277 200.92-46.639 264.37-8.0031 94.632-6.7743 188.59-2.609 283.35 8.5773-19.496 5.9583-56.208 6.7241-77.815l5.1875-94.028c11.77-160.32 44.598-334.6 121.78-477.13-11.914 51.795-29.033 73.801-42.524 168.12-33.774 236.26-14.075 903.48-33.256 1040.2-25.597-57.495-32.004-153.7-51.287-311.68-9.8718 98.475-3.465 195.74 9.9873 293.52zm-625.25-665.45c88.498-187.7 280.38-360.09 441.52-461.26 77.986-48.955 166.93-91.353 252.71-124.98 15.775-6.1849 48.824-23.183 65.234-22.735l2.7347 0.3977c-133.58 57.523-254.77 125.59-362.78 224.22-24.528 22.398-49.646 45.274-71.318 70.467-80.388 93.453-138.85 206.96-184.12 321.04-48.293 121.72-70.423 220.86-89.248 310.91-15.473-112.13 17.613-222.81 59.038-325.82 27.449-68.255 58.731-133.39 96.012-196.85 41.511-70.354 51.497-63.549 54.989-76.153-24.936 16.308-47.475 41.255-68.593 62.368-92.013 91.963-181.23 199.09-229.24 321.64 2.9415-36.429 17.608-70.456 33.06-103.23zm-92.618 105.79c2.1506-7.7817 5.2985-13.568 11.383-19.018l3.0118-0.3073c-5.4647 94.295 52.622 186.74 112.81 254.79 58.384 66.014 129.41 118.55 202.58 166.89 201.3 132.99 316.78 165.34 458.34 215.05 41.488 12.692 89.66 21.616 98.394 31.876-4.1847 4.1383-5.4996 5.0776-7.1367 13.851l-6.91-0.5842c-234.97-64.467-263.64-81.333-364.92-130.55-168.16-81.684-370.29-207.35-463.37-369.37-25.702-44.745-58.837-109.55-44.181-162.63zm790.16 823.86c18.912 5.7971 45.707 15.336 65.269 14.525l-0.5842 4.7498c-23.914-2.4146-26.941-3.9846-216.34-59.255-4.145-1.3699-11.448-2.8708-14.787-5.2681-4.0243-2.8962-4.2712-7.7061-9.62-9.1616-2.8557 5.8577-1.9338 6.1597-1.0125 12.284l-10.038-5.3237c-0.0908-10.542 15.689-17.144 19.23-26.235 3.4501-8.8746 3.3594-25.092 3.1327-34.601-0.8311-34.792-8.2852-66.19-16.218-99.814l5.6464-0.4734 73.403 29.555c26.89 9.8462 134.64 42.967 150.16 59.844l-2.4426 2.4982c-17.764-7.6605-35.765-12.677-53.695-19.522-43.314-16.535-91.882-36.208-137.69-43.41l-4.1097 2.8807c1.2844 5.782-0.2671 4.1705 4.0142 6.8248 12.188 7.5621 85.684 20.9 137.64 53.674-5.4042 12.138-10.35 20.917-19.204 31.05-5.4897 6.2808-8.6731 10.3-17.608 11.584-17.3 2.488-36.379-4.7244-51.625-12.234-11.997-14.505-7.7614-57.306-20.146-63.904l-3.2181 2.8556c2.1002 23.047 3.7926 46.986 10.441 69.253l-4.7042 5.0618c22.252 10.275 47.757 16.364 71.016 24.201 34.319 11.554 62.287 25.989 98.969 29.489 4.4473-4.9863 2.9916-6.709 3.0018-13.151-3.0018-19.099-4.5278-60.192-19.346-73.302l8.7889-0.8005c15.638 14.483 17.522 74.022 18.232 95.992-70.633-8.7585-138.07-34.496-205.84-55.503l-10.723 10.678c5.767 10.803 133.31 49.832 150.02 54.959zm-212.63-167.78-12.496-59.124 3.4603-1.8132c14.943 9.0759 18.836 21.34 22.962 37.774 7.3531 29.313 14.248 64.967 12.596 95.141-9.2068 14.485-19.396 28.023-33.342 38.328l-9.2472 0.7153-5.0668-4.4927c18.867-26.525 37.194-13.503 21.133-106.53zm239.58 99.517-7.5952-12.309-2.6744 1.6921c1.2228 7.0963 2.1006 11.538 0.1561 17.865-5.2882-3.5254-10.879-6.7388-15.084-11.569 6.9084-4.5903 7.551-4.667 13.221-14.334l4.3567-0.7756c12.128 9.1161 15.286 28.613 18.837 42.811l-3.7018 3.7019-5.0115-1.1836c1.3966-8.8489 2.027-10.412-2.5031-25.898zm-12.068 12.33-0.5641 4.0847c-6.3712 0.5942-9.5343-1.053-15.215-3.5659-11.566-7.8411-18.755-12.234-33.11-14.002l10.506-5.8071c7.9023-3.9135 18.247-23.556 25.676-22.544-3.005 11.608-3.9858 12.269-10.889 23.969-2.3168 3.9338-1.8534 2.1809-1.9943 5.9331l25.591 11.932zm-5.9178-42.609 6.6483 0.7756 1.5916 6.1648-5.4044-1.8181-2.8355-5.1223zm-735.68-381.47c-9.4335-19.527-14.666-42.393-18.928-63.556-2.0709-10.295-14.327-55.92-7.3835-62.886 13.656 35.575 13.471 76.546 29.026 111.88 26.064 59.195 94.617 101.6 141.05 144.31 19.577 18.01 38.646 41.532 60.373 56.384-57.486-88.28-157.42-145.56-187.96-218.55-7.3081-17.467-9.9724-35.347-13.146-53.846 13.926 14.183 16.112 36.283 24.795 53.982 52.82 107.57 166.92 134.93 219.41 225.8 10.482 18.134 20.889 41.588 9.3831 59.341-21.08 10.553-23.763 3.4183-102.79-57.87-118.28-90.654-196.65-146.9-213.16-295.12-0.8964-8.0485 1.637-14.641 4.5734-22.015l2.9716 0.7355c4.457 61.537 27.348 128.81 65.072 178.05 38.01 49.609 118.95 105.6 160.11 137.52 19.21 14.903 36.354 31.846 57.669 43.854-68.472-86.055-181.78-135.98-231.07-238.02zm-71.852-102.68c1.9843 16.767 0.2014 34.032 1.8737 50.92 12.959 130.58 133.32 207.44 229.11 280.14 20.519 15.578 43.692 39.033 67.48 48.215 48.694 18.815 76.998-19.703 55.76-74.974-32.085-83.433-119.5-112.37-196.28-190.85-13.135-13.434-23.25-22.373-31.187-37.667 0.0128-0.011 0.0259-0.022 0.0388-0.0327 2.8069 1.6088 2.0089 0.8853 4.1268 3.0479 112.78 114.99 265.22 186.84 406.34 259.73 19.32 56.278 35.629 124.26 21.189 183.18-184.42-57.51-237.95-94.627-345.87-182.28-78.682-63.904-175.31-140.19-207.25-235.29-24.961-74.335-15.065-84.325-5.334-104.14zm236.53 388.21c116.04 85.52 183.6 121.59 429.03 197.91 166.44 50.406 204.95 59.147 254.57 85.637l-39.154-172.29c-3.1378-13.715-11.358-27.651-13.75-40.761 18.956 6.9751 24.375 53.734 29.388 76.369 10.919 49.298 23.219 98.807 28.955 149.01-24.604-11.587-4.0713-2.1602-409.84-131.72-149.23-51.789-225.7-81.756-378.88-222.92-49.167-45.309-96.243-93.136-135.42-147.52-12.153-16.873-28.512-37.82-33.443-58.168 74.128 105.92 164.82 188 268.53 264.45zm-266.54-495.08-0.0757 3.0168c-1.8531 10.657-17.32 25.017-23.873 34.017-17.296 23.768-66.966 96.496-50.169 125.73 2.9155 5.0718 5.4245 5.6609 10.29 8.5367 31.679-5.1486 57.319-76.83 75.684-103.28 2.236 5.7366 0.1661 7.0413-2.0046 12.566-13.548 25.671-38.001 86.196-66.775 95.735-12.324 4.0948-21.442-3.2922-25.525-15.15-16.08-46.734 67.497-156.19 82.448-161.17zm-14.682-23.606c-11.026 26.71-69.333 87.085-104.41 148.98l-4.8047-4.79-3.4858-7.2625c104.21-130.52 104.05-131.38 112.7-136.93zm-441.97-334.09 0.3375-2.4178c66.877 70.668 153.78 254.43 267.69 454.41 32.5 56.653 76.683 145.36 226.2 307.63-7.6051 32.118-19.753 57.14-37.956 84.524-9.6803 13.156-18.308 25.233-34.354 30.814-15.008-10.562-27.797-39.673-38.172-55.584-203.49-311.89-220.58-528.29-383.75-819.38zm173.93 751.68c-22.453-57.084-29.212-121.88-40.957-181.94-68.446-324.43-48.42-238.57-90.28-393-6.6434-22.393-16.596-46.996-19.889-69.928l0.5338-0.947c36.721 72.38 57.794 156.3 78.676 234.39 85.125 296.06 86.742 306.25 105.06 351.5 54.771 135.27 98.273 129.35 260.4 497 12.841 29.12 52.948 116.21 50.053 148.23l-2.9662 2.8306c-25.138-34.755-7.2971-51.647-154.25-301.53l-85.586-131.4c-34.289-48.286-79.054-99.935-100.79-155.21zm242.66 1213.9c-4.6093-202.49-5.2154-200.44-3.188-222.87 12.67 68.66 41.008 578.55-38.444 851.18h-3.1628l-2.2117-4.9004c-5.7615-8.5217-11.151-15.956-18.585-23.092 27.55-82.978 68.798-321.33 65.591-600.32zm-70.996-494.84c11.916 230.69-7.8879 567.02-77.034 846.86-9.2823 37.553-16.993 76.954-29.207 113.58-5.001-3.2085-6.1545-6.0339-9.3281-11.02-4.8398-7.8621-18.101-24.1-17.19-32.849 1.6265-15.603 12.41-36.253 17.704-51.67 141.32-473.37 100.44-849.43 115.05-864.91zm-241.1 692.76c99.58-313.03 108.08-397.41 155.67-717.61l24.533-315.67 2.473-1.969c-2.033 207.67-0.2086 444.77-55.841 704.6-26.788 125.13-94.658 332.24-115.38 376.88-4.6038-3.0171-2.8459-1.083-5.3992-5.6814-2.7552-5.8677-11.065-19.723-10.819-25.893 0.1508-3.8124 3.5403-10.899 4.7546-14.656zm-31.333-629.8c12.481 52.652 13.815 103.24 13.906 157.11 0.0355 22.735 1.4956 47.052-1.576 69.515l-1.2592-2.5032c-6.85-46.694-8.6326-94.919-10.95-142.04-1.6783-34.213-4.8062-47.494-0.1206-82.081zm-205.13 307.71c33.156-91.489 68.825-185.22 124.92-265.48l-25.218 95.569c-53.632 247.22-20.174 393.73-18.343 414.16-66.016-75.414-68.411-122.5-98.279-164.74-8.7686 8.8745-13.679 22.221-22.15 32.038 10.964-37.855 25.651-74.516 39.068-111.55zm190.01 716.32c-21.677-17.711-10.021-101.61 1.1732-122.17l1.3199-0.3225-1.7228 74.289c0.0757 14.193 3.0169 34.944-0.7703 48.205zm-3.8985-174.42c-13.533 27.446-21.117 59.499-34.757 110.81-58.288-92.673-98.782-195.52-138.06-297.29-18.908-48.985-43.219-102.44-47.5-155l1.1329-1.969c13.034 50.723 30.643 82.539 76.833 109.65 18.398 10.798 37.175 18.887 57.931 23.818 18.922 69.932 45.833 138.55 82.64 201.07 2.7198 4.6235 4.2009 4.0092 1.7831 8.9047zm-99.351-239.32c-72.228-36.104-94.563-64.898-102.12-156.22 41.427 69.686 48.36 74.898 87.284 116.65 2.8351 2.886 11.538 9.7205 13.024 13.09 2.5837 5.8777 3.6316 15.367 5.1473 21.773l-3.3338 4.7142zm-137.57-143.61c2.1458-5.822 5.6156-13.216 11.337-15.915-6.9052 30.451-10.512 61.124-6.0087 92.245 8.9059 61.584 94.948 302.93 224.13 508.68 34.454 54.864 46.597 76.676 147.95 162.25 267.02 218.92 216.37 182.31 253.03 209.03 161.51 116.57 148.08 106.08 151.41 110.97 10.516 15.407 17.542 38.016 24.241 55.568 28.477 74.597 54.47 156.78 57.004 237.06l-3.7424-3.3394c-98.6-219.31-280.66-395.33-452.85-558.08-137.26-129.72-161.63-120.81-264.53-327.97-45.148-90.884-177-375.56-141.98-470.5zm591.82 841.41-43.913 18.247c-201.3-163.23-222.58-177.02-241.75-208.47l7.0711 0.2415 129.92 37.069c69.822 18.998 27.79-15.993 172.71 138.62l-24.04 14.294zm15.775 11.317c-10.083 11.539-20.745 22.76-28.875 35.79-6.925-3.7107-7.8133-4.9465-14.022-10.446 8.3008-10.456 30.703-19.557 42.897-25.344zm-157.76-187.99c-43.466-12.037-86.826-23.853-128.98-40.03-11.78-4.5229-26.19-8.2397-36.828-14.903-15.89-55.881-25.011-123-18.01-181.26l189.01 235.41-5.1925 0.7856zm176.5 257.62c13.08-14.631 24.911-27.852 33.196-45.782 64.571 80.669 98.938 140.14 99.83 146.64-62.684-47.73-97.389-66.904-133.03-100.86zm-490.33-239.61c-23.261-10.495-219.77-373.12-274.07-663.41 4.6739-3.5259 4.7547-4.397 10.879-5.0366 30.734 162.96 92.784 320.97 164.53 469.86l48.704 92.975c15.322 27.662 53.17 87.123 49.952 105.61zm16.253-16.208-4.6084-5.0618c-83.706-156.91-215.56-396.89-258.11-658.06l37.149-25.012c5.188 77.941 27.132 152.75 53.609 225.89 19.87 54.893 40.776 109.57 65.416 162.52 124.94 248.5 135.9 256.77 134.75 260.61-3.5007 11.624-20.192 29.358-28.205 39.104zm622.19 783.19c-156.42-332.9-364.14-478.07-593.32-701.54-7.4034-7.6707-16.031-15.321-20.715-24.982l3.8933-5.9783 5.4039-0.3174 145.48 139.53c137.91 125.82 365.45 307.13 463.44 595.8-3.0319-0.8916-1.5966-0.1259-4.1803-2.518zm150.18-31.086c-14.067 105.61-55.744 197-87.868 297.14 12.944-244.53-107.41-457.14-266.44-634.16l-384.34-373.9c7.4843-16.001 15.961-30.658 27.586-44.075 297.1 296.6 537.4 479.89 611.01 824.14 4.6486 21.737 6.0286 46.452 13.095 67.379 2.1909 6.4819 1.6719 6.8652 7.9375 9.479l6.6987 32.627c8.1565-158.66-9.184-191.73-29.938-265.8 20.323 26.332 39.507 79.155 43.723 112.14 2.7852 21.798 1.7527 45.143 1.6669 67.168 45.923-162.83 9.212-328.94-71.69-474.39-91.282-164.1-228.06-287.98-354.95-423.32-150.28-160.28-261.27-352.65-290.47-573.17-5.0674-38.268-4.6084-76.44-4.5533-114.95 0.1865-124.27 16.439-242.76 50.008-362.43 6.205-22.131 16.772-41.421 30.083-60.096-21.704 159.1-28.259 180.47-31.151 339.76-1.964 108.29 0.4688 225.23 31.806 329.54 99.417 330.89 401.35 526.39 562.16 758.55 100.37 144.92 159.29 310.82 135.63 488.37zm-258.86-1088.8 1.1631-0.7153 17.925 396.63-1.7679 1.1733c-32.223-29.233-22.115-14.012-18.842-93.811 5.6169-318.33-3.9396-264.06 1.5212-303.28zm122.8 337.99c25.924 33.527 35.093 117.74 242.38 355.62 5.0112 5.7012 12.289 12.153 14.586 19.356-13.136-6.0737-148.19-145.23-233.9-317.63-8.703-17.512-20.942-37.799-23.072-57.346zm714.34 719.37c-121.91-84.153-342-175.12-537.08-185.88l-11.977-56.299c183.25 17.947 388.63 115.61 533.19 221.88 22.803 16.764 54.046 36.286 71.582 58.368-0.0764 0.0967-0.1549 0.1904-0.2286 0.2891-4.8304-1.6847-1.961-0.2911-55.478-38.354zm658.09-2.4629c-77.402 83.701-176.06 241.37-227.73 409.11-0.4578-1.4336-0.9177-2.8643-1.3799-4.2925-0.4624 1.4282-0.9224 2.8589-1.3801 4.2925-52.091-169.1-151.34-326.5-227.73-409.11-88.955-96.183-219.11-170.93-339.58-246.33-130.2-75.367-254.66-149.64-359.58-259.61-94.894-99.478-171.05-224.9-216.3-354.55-39.05-111.87-55.15-258.45-88.362-473.62-87.525-564.33-99.706-609.52-95.131-815.01 52.802 91.063 40.373 100.75 45.596 150.48 29.048 225.97 99.583 654.68 124.62 805.26 23.173 146.3 42.685 314.11 224.91 545.74 138.65 176.24 211.84 224.67 433.4 344.57 16.133 8.6514 27.342 12.548 41.204 24.084-13.015-3.6338-7.1257-1.3477-136.66-67.852-276.06-150.15-387.41-290.12-483.46-468.16l-1.7527 1.1431c214.38 474.42 545.07 497.59 810.81 696.7 82.743 61.984 63.762 62.16 88.634 102.42 62.715 101.5 130.23 202.72 180.47 311.18 0.0977-0.1626 0.1951-0.3247 0.2925-0.4878 0.0972 0.1631 0.1946 0.3252 0.2922 0.4878 50.244-108.46 117.76-209.68 180.47-311.18 24.914-40.329 5.9543-40.482 88.634-102.42 263.38-197.34 596.86-223.24 810.81-696.7l-1.7527-1.1431c-91.038 168.76-197.5 312.63-483.46 468.16-128.09 65.764-123.6 64.206-136.66 67.852 13.862-11.537 25.071-15.434 41.204-24.084 221.89-120.07 295.93-169.82 433.4-344.57 182.43-231.89 202.14-401.97 224.91-545.74 25.782-155.06 95.534-578.99 124.62-805.26 5.3467-50.912-6.9319-59.893 45.596-150.48 4.5957 206.39-7.5022 250.01-95.13 815.01-36.323 235.32-51.12 366.93-88.362 473.62-45.253 129.65-121.41 255.07-216.3 354.55-104.91 109.97-229.37 184.24-359.58 259.61-117.91 73.795-250.7 150.22-339.58 246.33zm1038.5-751.62c3.3 80.453 13.121 64.814-18.842 93.811l-1.7678-1.1733 17.925-396.63 1.1631 0.7153c3.7688 27.065-3.0667 43.269 1.521 303.28zm-124.32 34.717c-2.1304 19.547-14.369 39.834-23.072 57.346-87.143 175.28-223.17 312.67-233.9 317.63 2.0737-6.5034 2.3171-5.2769 46.13-55.554 174.79-208.04 186.79-288.31 210.84-319.42zm-177.25 533.49c-190.71 10.518-411.93 99.488-537.08 185.88-52.958 37.665-50.98 37.045-56.158 38.61-0.0842 0.1104-0.1489 0.1924-0.2307 0.2998-0.0459-0.0459-0.0996-0.0786-0.146-0.123 0.1311-0.061 0.2422-0.1147 0.3767-0.1768 32.676-41.768 319.93-252.85 605.22-280.79l-11.977 56.299zm129.05 514.49c-32.123-100.14-73.8-191.53-87.867-297.14-23.652-177.56 35.261-343.46 135.63-488.38 163.89-236.61 462.19-425.84 562.16-758.55 31.337-104.31 33.77-221.25 31.806-329.54-2.8918-159.25-9.4412-180.62-31.151-339.76 13.312 18.675 23.878 37.965 30.083 60.096 33.569 119.67 49.822 238.15 50.008 362.43 0.0552 38.51 0.5142 76.681-4.5532 114.95-29.207 220.52-140.2 412.89-290.47 573.17-126.89 135.34-263.66 259.23-354.95 423.32-80.902 145.45-117.61 311.56-71.69 474.39-0.0857-22.024-1.1182-45.369 1.667-67.168 4.2156-32.989 23.4-85.812 43.723-112.14-20.585 73.466-38.142 106.21-29.938 265.8l6.6987-32.627c19.671-8.2061 4.6489-56.753 56.525-199.36 98.18-269.84 324.75-451.29 575.52-701.63 11.625 13.417 20.102 28.074 27.586 44.075l-384.34 373.9c-159.03 177.02-279.39 389.63-266.44 634.16zm655.63-967.59c-229.58 223.87-436.98 368.81-593.32 701.54-2.5837 2.3921-1.1484 1.6265-4.1804 2.5181 58.258-171.63 167.97-317.02 296.04-443.08 200.96-183.35 129.76-116.62 312.88-292.26l5.4041 0.3174 3.8933 5.9783c-4.6836 9.6603-13.311 17.311-20.715 24.982zm28.864-81.643c-8.0129-9.7458-24.704-27.48-28.205-39.104-2.9343-9.7903 236.42-388.32 253.78-649.03l37.149 25.012c-39.678 243.51-153.82 462.55-258.11 658.06l-4.6083 5.0618zm16.253 16.208c-3.2666-18.768 37.453-83.04 49.953-105.61l48.704-92.975c71.75-148.89 133.8-306.9 164.53-469.86 6.124 0.6396 6.2051 1.5107 10.879 5.0366-54.351 290.54-250.95 652.98-274.07 663.41z"/> <path d="m2192 2090 2.6392-2.0298c19.638-3.7725 45.611-21.693 64.312-30.234 193.03-79.057 187.79-78.819 195.44-76.793 0.9871 5.4899 2.6995 13.765-0.3779 18.887-3.7371 6.2201-11.947 11.977-16.5 18.142-8.0283 10.859-10.144 33.131-13.211 46.301-27.928 119.89-25.697 125.17-32.194 210.23-0.3777 11.67 2.1963 35.588-2.7549 45.752-3.7371 7.6707-12.224 15.991-17.321 23.123-0.2812 0.3936-144.88 220.38-211.27 399.61-9.2068 24.846-14.384 57.865-26.991 80.484l10.27-333.1c61.532-73.196 124.99-134.97 220.77-157.11-13.425-15.386-126.09-34.327-195.42-202.48-27.669-67.113-23.004-23.914-21.436-293.75 0.9531-615.25 1.5879-233.38-3.6562-1605.8 4.0212 7.4689-1.4136-27.744 61.532 453.13 155.46 1125.5 80.782 649.52 156.09 1133.5 19.522 116.9 28.747 103.07-12.052 142.67-45.072 43.74-131.09 95.747-155.24 127.42l-2.6391 2.0299zm-16.359-1280.1c1.0962 1324.7-4.6492 1270.7 5.2883 1282.8l2.2412 1.8584-4.6135-1281.8-2.916-2.8306z"/> <path d="m2050.9 2090-2.6392-2.0298c-19.638-3.7725-45.611-21.693-64.312-30.234-193.03-79.057-187.79-78.819-195.44-76.793-0.9871 5.4899-2.6996 13.765 0.3778 18.887 3.7372 6.2201 11.947 11.977 16.5 18.142 8.0283 10.859 10.144 33.131 13.211 46.301 27.929 119.89 25.697 125.17 32.194 210.23 0.3778 11.67-2.1962 35.588 2.7549 45.752 3.7372 7.6707 12.224 15.991 17.321 23.123 0.2812 0.3936 144.88 220.38 211.27 399.61 9.2068 24.846 14.384 57.865 26.991 80.484l-10.27-333.1c-61.532-73.196-124.99-134.97-220.77-157.11 13.425-15.386 126.09-34.327 195.42-202.48 27.669-67.113 23.005-23.914 21.436-293.75-0.9531-615.25-1.5879-233.38 3.6562-1605.8-4.021 7.4689 1.4136-27.744-61.532 453.13-155.46 1125.5-80.782 649.52-156.09 1133.5-19.522 116.9-28.747 103.07 12.052 142.67 45.072 43.74 131.09 95.747 155.24 127.42l2.6391 2.0299zm16.359-1280.1c-1.0962 1324.7 4.6492 1270.7-5.2883 1282.8l-2.2412 1.8584 4.6135-1281.8 2.916-2.8306z"/> <path d="m4035.4 821.57 2.0649-2.7247-2.0649 2.7247z"/> <path d="m207.55 821.57-2.0648-2.7247 2.0648 2.7247z"/> <path d="m2797 909.46 1.9141 2.5637-1.9141-2.5637z"/> <path d="m1445.9 909.46-1.9139 2.5637 1.9139-2.5637z"/> <path d="m2801.3 914.83-2.4526-2.8104 2.4526 2.8104z"/> <path d="m1441.6 914.83 2.4529-2.8104-2.4529 2.8104z"/> <path d="m2842.1 1073.1 1.9541 2.9313-1.9541-2.9313z"/> <path d="m1400.8 1073.1-1.9542 2.9313 1.9542-2.9313z"/> <path d="m2615.7 2026.3c-2.3118 2.1154-0.6848 0.9316-5.4746 2.5182l-5.1321-7.5548c1.949-3.6263 3.188-4.3416 2.3267-8.5571l-1.7224-4.0343c15.487-14.153 52.557-22.619 72.748-27.701 3.178-0.3778 6.3562-0.1007 9.5544 0l-1.1484 4.145c-19.35 15.553-52.602 19.2-75.548 30.023-1e-4 3.5557 2.8708 7.9074 4.3967 11.161z"/> <path d="m1627.2 2026.3c2.3118 2.1154 0.6849 0.9316 5.4746 2.5182l5.1322-7.5548c-1.949-3.6263-3.1881-4.3416-2.3268-8.5571l1.7224-4.0343c-15.487-14.153-52.556-22.619-72.748-27.701-3.178-0.3778-6.3562-0.1007-9.5546 0l1.1486 4.145c19.35 15.553 52.602 19.2 75.548 30.023 1e-4 3.5557-2.8708 7.9074-4.3968 11.161z"/> <path d="m2628.9 2028.3c-2.2463 0.3124-4.3921 5e-3 -6.6431-0.1661l-2.3723-4.4271 4.1499-4.9207c14.137-2.5688 23.032-6.6639 34.495-12.707 5.3088-1.3799 5.4597-2.5032 10.637 0-7.323 9.5443-29.454 11.332-40.267 22.221z"/> <path d="m1614 2028.3c2.2462 0.3124 4.392 5e-3 6.6431-0.1661l2.3723-4.4271-4.15-4.9207c-14.137-2.5688-23.032-6.6639-34.495-12.707-5.3087-1.3799-5.4596-2.5032-10.637 0 7.3231 9.5443 29.454 11.332 40.267 22.221z"/> <path d="m2651.8 2041.4c-3.0017 2.075-5.2483 3.4047-9.0305 4.009-6.0994 0.9772-16.283-0.0503-21.456-3.6465-4.0798-2.8354-3.3242-3.4752-4.4324-7.9174 5.9888-0.8865 3.158-0.9873 8.9299 0.146 10.103 1.9895 18.167 3.2385 27.031-2.1606l3.7522 2.0146-4.7946 7.5549z"/> <path d="m1591.1 2041.4c3.0018 2.075 5.2483 3.4047 9.0306 4.009 6.0994 0.9772 16.283-0.0503 21.456-3.6465 4.0796-2.8354 3.324-3.4752 4.4323-7.9174-5.9886-0.8865-3.158-0.9873-8.9299 0.146-10.103 1.9895-18.167 3.2385-27.031-2.1606l-3.7522 2.0146 4.7946 7.5549z"/> <path d="m2250.3 2334.5c12.636-9.4448 14.514-5.8611 19.617-11.78-9.9827-0.3425-14.122 3.0623-22.367 8.2349-39.396 24.734-71.952 55.009-102.56 89.887 2.9241-270.96 0.2046-243.32 2.3115-250.9 30.215 63.521 78.198 119.6 140.91 152.9-11.73 4.704-25.128 11.584-37.91 11.654z"/> <path d="m1992.6 2334.5c-12.637-9.4448-14.514-5.8611-19.617-11.78 9.9824-0.3425 14.122 3.0623 22.367 8.2349 39.396 24.734 71.952 55.009 102.56 89.887-2.9243-270.96-0.2048-243.32-2.3118-250.9-30.215 63.521-78.198 119.6-140.91 152.9 11.73 4.704 25.128 11.584 37.91 11.654z"/> <path d="m2250.3 2334.5-2.9316 2.1306 2.9316-2.1306z"/> <path d="m1992.6 2334.5 2.9315 2.1306-2.9315-2.1306z"/> <path d="m3332.4 2377.9 2.1709-5.3386-2.1709 5.3386z"/> <path d="m910.47 2377.9-2.1709-5.3386 2.1709 5.3386z"/> <path d="m3244.2 2727.5 2.2666-2.3672-2.2666 2.3672z"/> <path d="m998.67 2727.5-2.2665-2.3672 2.2665 2.3672z"/> <path d="m3244.2 2727.5c-117.86 294.06-131.83 358.76-153.36 638.52-2.3005 26.789-4.6621 62.965-20.68 84.609-24.574 33.181-57.17 61.955-84.252 93.287-129.06 150.41-21.683 29.426-270.28 297.95-24.448 24.13-52.622 51.146-82.439 68.472 16.54-58.893 31.806-119.18 40.479-179.79 23.516-164.43 27.741-331.84 67.56-493.73 7.988-32.481 16.298-69.066 32.572-98.596 32.23-58.483 160.08-177.56 219.33-225.81 154.03-117.32 217.42-167.19 251.07-184.91z"/> <path d="m998.67 2727.5c117.86 294.06 131.83 358.76 153.36 638.52 2.3005 26.789 4.6621 62.965 20.68 84.609 24.574 33.181 57.17 61.955 84.252 93.287 129.06 150.41 21.684 29.426 270.28 297.95 24.448 24.13 52.622 51.146 82.439 68.472-16.54-58.893-31.806-119.18-40.479-179.79-23.516-164.43-27.741-331.84-67.56-493.73-7.988-32.481-16.298-69.066-32.571-98.596-32.23-58.483-160.08-177.56-219.33-225.81-154.03-117.32-217.42-167.19-251.07-184.91z"/> <path d="m3058.3 2755.4 2.5034-1.9697-2.5034 1.9697z"/> <path d="m1184.6 2755.4-2.5033-1.9697 2.5033 1.9697z"/> <path d="m3058.3 2755.4c-8.7886 11.939-11.777 12.401-159.47 101.1-81.514 52.317-133.8 116.3-183.4 147.87 8.8501-18.366 15.446-22.224 118.58-110.09 15.639-12.843 33.982-25.807 47.661-40.569l2.8557-2.0295-2.8557 2.0295c-19.134 3.042-37.8 12.395-55.81 19.507-95.909 34.238-88.267 32.753-97.105 33.075 13.025-7.6741-2.801-0.1445 216.22-93.035l70.119-36.183c13.694-7.5495 27.903-18.096 43.204-21.677z"/> <path d="m1184.6 2755.4c8.7887 11.939 11.777 12.401 159.47 101.1 81.514 52.317 133.8 116.3 183.4 147.87-8.8501-18.366-15.446-22.224-118.58-110.09-15.639-12.843-33.982-25.807-47.661-40.569l-2.8558-2.0295 2.8558 2.0295c19.134 3.042 37.799 12.395 55.81 19.507 95.909 34.238 88.267 32.753 97.105 33.075-13.025-7.6741 2.801-0.1445-216.22-93.035l-70.119-36.183c-13.695-7.5495-27.903-18.096-43.204-21.677z"/> <path d="m2939.5 2861.1 2.5886-2.1055-2.5886 2.1055z"/> <path d="m1303.4 2861.1-2.5886-2.1055 2.5886 2.1055z"/> <path d="m2939.5 2861.1c-32.909 33.468-75.725 60.414-112.04 90.502-31.776 26.326-61.668 59.18-95.705 82.176l-103.23-97.095-5.2832-7.6252 3.1528-2.3823c36.671 25.092 63.707 62.458 101.69 86.286 14.349-4.9006 32.848-22.891 45.208-32.491 152.09-113.4 153.99-116.19 166.21-119.37z"/> <path d="m1303.4 2861.1c32.909 33.468 75.725 60.414 112.04 90.502 31.776 26.326 61.668 59.18 95.705 82.176l103.23-97.095 5.2831-7.6252-3.1527-2.3823c-36.671 25.092-63.707 62.458-101.69 86.286-14.349-4.9006-32.848-22.891-45.208-32.491-152.09-113.4-153.99-116.19-166.21-119.37z"/> <path d="m2728.7 2906.3-5.3689 2.4126 5.3689-2.4126z"/> <path d="m1514.2 2906.3 5.3689 2.4126-5.3689-2.4126z"/> <path d="m2612.6 3293.8 1.8638 2.7397-1.8638-2.7397c-3.562-15.467-7.3604-18.689-12.405-31.106l-20.242-52.138c-3.4146-7.6455-18.791-35.1-16.253-41.501 22.393 37.83 38.767 75.362 54.309 116.27-4.6533-32.646-12.097-96.414 4.7344-124.75-2.1001 39.935-1.0679 77.493 4.6841 117.23l21.012-163.16c4.6487 52.844-4.0242 105.91-1.7727 158.96 6.0337-19.623 5.1975-43.279 7.9124-63.793l18.252-102.29c-80.668-83.104-100.29-89.019-116.36-116.3 23.334 14.823 44.08 33.403 65.309 51.03 23.098 19.179 47.661 38.061 67.611 60.605l-49.806 245.84c-45.475-49.182-85.39-107.92-112.52-169.3 11.775 7.293 18.081 19.3 25.43 30.623 49.283 72.932 51.772 77.643 60.106 83.773zm4.7546-10.96h2.9163-2.9163z"/> <path d="m1630.3 3293.8-1.8638 2.7397 1.8638-2.7397c3.5621-15.467 7.3605-18.689 12.405-31.106l20.242-52.138c3.4147-7.6455 18.791-35.1 16.253-41.501-22.392 37.83-38.767 75.362-54.309 116.27 4.6533-32.646 12.097-96.414-4.7344-124.75 2.1002 39.935 1.0679 77.493-4.684 117.23l-21.013-163.16c-4.6486 52.844 4.0243 105.91 1.7728 158.96-6.0338-19.623-5.1976-43.279-7.9124-63.793l-18.253-102.29c80.668-83.104 100.29-89.019 116.36-116.3-23.334 14.823-44.08 33.403-65.309 51.03-23.098 19.179-47.661 38.061-67.611 60.605l49.806 245.84c45.475-49.182 85.39-107.92 112.52-169.3-11.776 7.293-18.081 19.3-25.43 30.623-49.283 72.932-51.772 77.643-60.106 83.773zm-4.7546-10.96h-2.9161 2.9161z"/> <path d="m2459.7 3517.3 98.384-146.24c38.597 77.698 35.195 111 14.374 237.99-57.572 351.29-160.18 473.75-359.94 813.42 66.936-282.38 55.043-241.8 55.221-670.25-0.1892-100.05-1.5508-91.271-0.1865-96.677 2.8259-11.19 141.73-195.38 262.37-327.28l4.5278 2.5183c2.0952 3.4954 11.363 16.258 11.735 19.562 0.967 8.5876-172.06 222.91-193.82 248.5-64.909 74.527-59.08 65.661-61.889 70.869-3.3821 6.2644-2.7527 53.421-2.1406 65.914 4.9089-12.034 4.2329-32.985 12.858-51.746 8.0552-17.515 60.291-84.671 104.41-121.89-31.438 77.357-96.803 133.1-116.21 217.7-6.2805 27.379-2.3218 64.307-2.4529 92.713l-1.9138 196.35c-1.0579 37.945-9.2422 75.881-10.028 113.44-0.3123 15.044 0.156 53.514 7.8218 65.853 11.881-3.8276 1.6873-56.112 12.36-69.792 8.3606 3.9233 18.177 26.502 23.657 35.523-7.5601-44.327-27.923-83.471-25.968-130.03 0.2969-7.1772 0.9822-10.436 6.0891-15.437 22.372 22.765 20.363 62.896 42.811 84.403 3.9094-5.7134 9.7554-12.817 8.5923-17.341-2.8186-10.966-35.02-48.557-47.626-105.73-7.9075-35.845-7.8269-71.837-7.157-108.33 2.7373-149.19 7.0488-140.92 164.12-404.02zm89.384-59.613c-167.48 242.7-218.21 300.4-221.37 438.57-1.4404 62.953 4.6282 138.99 42.236 189.83l4.1553-2.342c7.3584-12.722 14.566-24.629 23.803-36.117-24.165-32.249-36.047-54.969-40.685-94.773-19.248-165.34 47.367-235.49 156.74-393.35 41.477-54.594 37.628-48.003 38.076-49.691 3.1833-11.982-1.2087-38.963-2.9563-52.133zm-3.9385 115.64c-51.982 72.035-168.11 203.66-150.29 310.28 4.8652 29.071 16.565 62.02 31.544 87.49 18.404-25.032 29.484-51.096 40.867-79.87-24.034-33.176-32.788-56.671-25.717-98.429 6.4722-38.212 27.726-75.619 60.036-98.002l25.248-14.304c7.9022-34.243 16.676-72.083 18.308-107.17zm-64.251 273.7 2.1453 6.8396 2.2515 0.7153-2.3518-6.7793-2.045-0.7756z"/> <path d="m1783.2 3517.3-98.384-146.24c-38.597 77.698-35.195 111-14.374 237.99 57.572 351.29 160.18 473.75 359.94 813.42-66.936-282.38-55.043-241.8-55.221-670.25 0.1892-100.05 1.5508-91.271 0.1865-96.677-2.8259-11.19-141.73-195.38-262.37-327.28l-4.5278 2.5183c-2.0953 3.4954-11.363 16.258-11.735 19.562-0.9672 8.5876 172.06 222.91 193.82 248.5 64.909 74.527 59.08 65.661 61.889 70.869 3.3821 6.2644 2.7526 53.421 2.1405 65.914-4.9088-12.034-4.2329-32.985-12.858-51.746-8.0554-17.515-60.291-84.671-104.41-121.89 31.438 77.357 96.803 133.1 116.21 217.7 6.2806 27.379 2.3219 64.307 2.4529 92.713l1.9139 196.35c1.0577 37.945 9.2422 75.881 10.028 113.44 0.312 15.044-0.1561 53.514-7.8219 65.853-11.881-3.8276-1.6871-56.112-12.36-69.792-8.3606 3.9233-18.177 26.502-23.657 35.523 7.5601-44.327 27.923-83.471 25.968-130.03-0.2969-7.1772-0.9822-10.436-6.0891-15.437-22.372 22.765-20.363 62.896-42.811 84.403-3.9094-5.7134-9.7554-12.817-8.5923-17.341 2.8186-10.966 35.019-48.557 47.626-105.73 7.9075-35.845 7.8269-71.837 7.1571-108.33-2.7373-149.19-7.0487-140.92-164.12-404.02zm-89.384-59.613c167.48 242.7 218.21 300.4 221.37 438.57 1.4403 62.953-4.6283 138.99-42.237 189.83l-4.1552-2.342c-7.3584-12.722-14.566-24.629-23.803-36.117 24.165-32.249 36.046-54.969 40.685-94.773 19.248-165.34-47.367-235.49-156.74-393.35-41.477-54.594-37.628-48.003-38.076-49.691-3.1831-11.982 1.2088-38.963 2.9564-52.133zm3.9385 115.64c51.982 72.035 168.11 203.66 150.29 310.28-4.8654 29.071-16.565 62.02-31.544 87.49-18.404-25.032-29.484-51.096-40.867-79.87 24.034-33.176 32.788-56.671 25.717-98.429-6.4722-38.212-27.726-75.619-60.036-98.002l-25.248-14.304c-7.9024-34.243-16.676-72.083-18.308-107.17zm64.252 273.7-2.1454 6.8396-2.2515 0.7153 2.3519-6.7793 2.045-0.7756z"/> <path d="m3206.8 3636.7 2.3923-5.0569-2.3923 5.0569z"/> <path d="m1036.1 3636.7-2.3922-5.0569 2.3922 5.0569z"/> <path d="m3206.8 3636.7-2.498 5.1118 2.498-5.1118z"/> <path d="m1036.1 3636.7 2.498 5.1118-2.498-5.1118z"/> <path d="m3204.3 3641.9-2.3523 4.9109 2.3523-4.9109z"/> <path d="m1038.6 3641.9 2.3522 4.9109-2.3522-4.9109z"/> </svg>